<?xml version="1.0" encoding="utf-8"?>
<!-- Generator: Adobe Illustrator 22.1.0, SVG Export Plug-In . SVG Version: 6.00 Build 0)  -->
<svg version="1.1" id="Layer_1" xmlns="http://www.w3.org/2000/svg" xmlns:xlink="http://www.w3.org/1999/xlink" x="0px" y="0px"
	 viewBox="0 0 561.1 469" style="enable-background:new 0 0 561.1 469;" xml:space="preserve">
<style type="text/css">
	.st0{fill:#FFFFFF;}
</style>
<title>bobs-logo</title>
<g>
	<path class="st0" d="M152.7,90.9h-29.3V56h29.3c3.8,0,7.5,1.5,10.1,4.3c2.8,2.7,4.3,6.4,4.2,10.3v5.9
		C167,84.4,160.6,90.7,152.7,90.9L152.7,90.9z"/>
	<path class="st0" d="M162.8,136.6c-2.6,2.7-6.3,4.3-10.1,4.2h-29.1v-34.9h29.1c3.8,0,7.5,1.5,10.1,4.3c2.8,2.7,4.3,6.4,4.2,10.3v6
		C167.1,130.3,165.6,134,162.8,136.6z"/>
	<path class="st0" d="M555.5,0H5.7C2.5,0,0,2.5,0,5.6l0,0v344.7c0,3.1,2.5,5.7,5.6,5.7l0,0h197.2c12.4,12.5,11.5,25-2.9,37.5
		c-86.3,5.6-147.7,19.8-147.7,36.5c0,21.5,102.4,39,228.7,39s228.7-17.5,228.7-39c0-16.7-61.8-31-148.6-36.5
		c-14.3-12.5-15.2-25-2.8-37.5h197.2c3.1,0,5.7-2.5,5.7-5.6l0,0V5.7C561.1,2.5,558.6,0,555.5,0L555.5,0z M448.6,125.9L410,108.6
		c-3.5-1.5-6.5-4-8.5-7.2c-1.9-2.8-3-6.2-3-9.6c-0.1-5,1.9-9.8,5.4-13.3c3.4-3.7,8.2-5.7,13.2-5.6h33c4.9-0.1,9.7,1.5,13.6,4.6
		s5.9,6,5.9,8.9c0,1.9-0.8,3.7-2.2,5c-1.3,1.3-3,2-4.8,2c-2.4-0.1-4.7-1.2-6.3-3.1c-1.9-2.1-3.8-3.1-5.9-3.1h-32.5
		c-3.2,0-4.8,1.3-4.8,4c0,1.9,1.1,3.3,3.2,4.2l38.2,17c3.9,1.7,7.2,4.6,9.5,8.3c2.5,3.7,3.8,8.1,3.7,12.6c0.1,5.9-2.2,11.6-6.5,15.7
		c-4.4,4.3-9.3,6.4-14.8,6.4h-29.1c-5,0-9.9-1.6-14-4.5c-4.3-3-6.5-6-6.5-8.8c0-1.9,0.8-3.7,2.1-5c1.4-1.5,3.4-2.3,5.4-2.2
		c1.8,0,3.8,1,5.9,3.1s5.1,3.1,9,3.1H446c2,0,4-0.9,5.3-2.4c1.4-1.5,2.2-3.5,2.1-5.6C453.4,129.7,451.8,127.4,448.6,125.9z
		 M347,43.8c1.3-1.4,3.1-2.2,5-2.1h29.1c1.9,0,3.8,0.7,5.1,2.1c1.4,1.4,2.1,3.2,2.1,5.2v37.3c0.1,4-2.9,7.3-6.9,7.5
		s-7.3-2.9-7.5-6.9c0-0.2,0-0.4,0-0.5V56.2H352c-1.9,0-3.8-0.8-5.1-2.2c-1.4-1.4-2.1-3.2-2.1-5.2C344.9,46.9,345.6,45.1,347,43.8z
		 M268.8,48.8c0-1.9,0.8-3.7,2.2-5.1c2.8-2.8,7.3-2.8,10.1,0c1.4,1.3,2.1,3.2,2.1,5.1v33.8l6.3-5.1c4-3.3,8.1-5,12.4-5h13.2
		c4.8,0,9.4,1.8,12.9,5l6.8,5.9c2.1,2,3.7,4.4,4.7,7.1c1.2,2.9,1.8,6,1.8,9.1v29.1c0,2.8-0.6,5.7-1.7,8.3c-0.8,2.4-2.2,4.6-3.9,6.4
		l-6.3,5.9c-2,1.8-4.3,3.2-6.8,4.1c-2.4,1.1-4.9,1.7-7.5,1.8h-12.4c-6,0-12.5-3.3-19.6-10v2.8c0.1,4-2.9,7.3-6.9,7.5
		c-4,0.1-7.3-2.9-7.5-6.9c0-0.2,0-0.4,0-0.5L268.8,48.8z M188.8,98.7c0-6.3,2.9-12.2,8.8-17.8c5.8-5.6,12.2-8.3,19-8.3h16.9
		c6.4-0.1,12.7,2.5,18.8,8c6.1,5.5,9.1,11.5,9.1,18v30.5c0,6.5-3,12.4-9.1,17.9s-12.3,8.2-18.8,8.2h-16.8c-6.6,0-12.8-2.8-18.8-8.4
		s-9-11.5-9-17.8L188.8,98.7z M109.1,41.7h44c7.7-0.1,15,3,20.3,8.5c5.5,5.4,8.6,12.8,8.4,20.4v6.1c0,8.5-3.3,15.7-9.8,21.7
		c6.6,6.1,9.8,13.3,9.8,21.7v6.3c0.1,7.7-2.9,15-8.4,20.4c-5.3,5.6-12.7,8.6-20.4,8.5h-44L109.1,41.7z M480.3,271.5
		c0,9.9-8,17.9-17.9,18c-0.3,0-0.6,0-0.9,0l-260.3-12.4c-11.6,35.4-49.8,54.7-85.2,43.1c-13.8-4.5-25.7-13.3-34.1-25.2
		c-1.2-1.7-0.8-4,0.9-5.2c0.6-0.5,1.4-0.7,2.2-0.7h57c6,0,10.9-4.9,10.9-10.9v-43.7c0-6-4.9-10.9-10.9-10.9l0,0H84.6
		c-2.1,0-3.8-1.7-3.8-3.8c0-0.8,0.2-1.5,0.7-2.1c21.2-30.7,63.3-38.3,93.9-17.1c12.1,8.4,21.1,20.5,25.7,34.4l260.3-12.4
		c9.9-0.5,18.3,7.2,18.8,17.1c0,0.3,0,0.6,0,0.9L480.3,271.5z"/>
	<path class="st0" d="M240.7,97.1l-4.1-3.2c-1.4-1.1-3.1-1.8-4.9-1.7h-12.1c-2.6,0-4.7,0.6-6.1,1.9l-4,3.4c-1.4,1.1-2.2,2.9-2.1,4.7
		v23.6c-0.1,1.9,0.7,3.8,2.3,5l4.4,3.7c1.1,0.9,2.6,1.4,4.1,1.2h13.5c2,0,4-0.8,5.4-2.1l3.6-3.2c1.5-1.1,2.3-2.8,2.1-4.6v-23.6
		C242.9,100,242.1,98.2,240.7,97.1L240.7,97.1z"/>
	<path class="st0" d="M320.9,97.3l-4.2-3.6c-1.2-1.1-2.8-1.6-4.3-1.6h-8.1c-1.6-0.1-3.2,0.3-4.5,1.3l-10.5,9c-1.4,1.2-2,3-2,5.5
		v13.3c0,1.9,0.8,3.7,2.3,4.9l9.4,8c1.1,1.1,2.6,1.8,4.2,1.9h9.5c1.3,0,2.5-0.4,3.5-1.2l4.6-4.2c1.2-0.9,2-2.4,1.9-4v-24.7
		C322.9,100.1,322.2,98.4,320.9,97.3z"/>
</g>
</svg>
